<svg id="Layer_1" enable-background="new 0 0 512 512" height="512" viewBox="0 0 512 512" width="512" xmlns="http://www.w3.org/2000/svg"><g><g><path clip-rule="evenodd" d="m263.26 389.18c4.542-44.261-20.773-98.161-26.617-108.52-23.764-42.184 11.66-61.378 28.722-34.511l18.252 28.778 35.48-159.595c4.708-21.217 35.397-20.386 30.217 13.156l-14.929 96.832c-1.994 7.534 10.248 12.963 13.738 2.964l39.662-114.198c8.115-23.322 35.729-14.181 29.137 9.196l-30.688 108.686c-2.659 9.39 9.805 16.729 14.873 4.626l37.114-88.799c10.248-24.457 40.078-14.375 29.47 12.519l-35.646 90.184c-6.066 15.372 2.327 20.856 11.107 7.645l32.627-49.108c11.771-17.699 37.613-2.908 25.509 18.225l-96.884 169.344-7.727 28.529-81.54-.776c0-.001-15.788-6.427-51.877-35.177z" fill="#eff6ff" fill-rule="evenodd"/></g><g><path clip-rule="evenodd" d="m195.956 367.88c7.174-43.929 45.672-89.381 53.982-97.856 33.957-34.511 4.764-62.292-18.723-40.799l-25.121 23.017 7.367-163.334c.997-21.715-28.86-28.917-32.599 4.847l-10.83 97.358c-.055 7.811-13.295 9.86-14.042-.72l-8.531-120.596c-1.717-24.623-30.771-22.989-30.494 1.274l1.274 112.924c.111 9.777-13.821 13.627-15.566.609l-12.686-95.419c-3.49-26.285-34.926-24.319-31.685 4.404l10.885 96.361c1.856 16.425-7.7 19.527-12.713 4.487l-18.696-55.922c-6.758-20.164-35.563-12.63-29.387 10.941l49.384 188.761v29.554l68.273 22.712c9.723-4.1 61.599-17.728 69.908-22.603z" fill="#eff6ff" fill-rule="evenodd"/></g><g><path clip-rule="evenodd" d="m192.522 367.77h-16.757-113.669-2.52c-10.026 0-18.225 8.199-18.225 18.225s8.198 18.225 18.225 18.225h132.946c10.026 0 18.225-8.199 18.225-18.225s-8.199-18.225-18.225-18.225z" fill="#a1d4ff" fill-rule="evenodd"/></g><g><path clip-rule="evenodd" d="m210.746 385.995c0-10.027-8.198-18.225-18.225-18.225h-16.757-10.719c10.026 0 18.225 8.199 18.225 18.225s-8.198 18.225-18.225 18.225h27.475c10.028 0 18.226-8.199 18.226-18.225z" fill="#86beec" fill-rule="evenodd"/></g><g><path clip-rule="evenodd" d="m329.235 406.907-64.728-17.45c-.138-.028-.249-.083-.388-.111-.028 0-.055 0-.083 0l-.138-.028-.028-.028h-.028l-.111-.028h-.028-.028-.028-.028-.028l-.028-.028h-.028l-.194-.028h-.028-.028l-.028-.028s0 0 0-.028c-9.279-1.8-18.612 3.878-21.105 13.129-2.604 9.694 3.185 19.749 12.851 22.352l128.376 34.65c9.666 2.604 19.72-3.185 22.324-12.852 2.548-9.417-2.853-19.167-12.021-22.103l-1.191-.332-15.372-4.155z" fill="#a1d4ff" fill-rule="evenodd"/></g><g><path clip-rule="evenodd" d="m410.439 452.451c2.629-9.715-2.943-19.773-12.401-22.802l-1.229-.343-15.858-4.286-11.486-3.086c9.457 3.029 15.029 13.087 12.4 22.802-2.686 9.972-13.886 15.715-23.029 13.229l28.573 7.743c9.972 2.687 20.344-3.285 23.03-13.257z" fill="#86beec" fill-rule="evenodd"/></g><g><path clip-rule="evenodd" d="m237.613 226.178c7.894 5.484 9.611 16.896.277 32.157-2.991 4.93-6.758 9.085-10.719 13.24-10.054 10.719-43.872 54.509-51.406 96.195h18.557c.554 0 1.108.028 1.634.111 5.207-31.963 30.467-73.122 52.874-96.693.415-.443.776-.831 1.108-1.163 25.454-25.897 15.4-47.973-1.108-48.333-3.933-.111-8.254 1.053-12.519 3.684.443.248.886.525 1.302.802z" fill="#d9eeff" fill-rule="evenodd"/></g><g><path clip-rule="evenodd" d="m190.888 246.73c0 11.882 12.436 12.049 15.206 5.512l7.367-163.334c.499-10.747-6.592-17.948-14.319-18.364-2.244-.111-8.06 162.503-8.254 176.186z" fill="#d9eeff" fill-rule="evenodd"/></g><g><path clip-rule="evenodd" d="m140.285 191.944c.859 12.824 16.12 15.926 16.12.748l-2.825-36.34-6.121-86.556c-.886-12.547-8.863-18.281-16.424-17.671z" fill="#d9eeff" fill-rule="evenodd"/></g><g><path clip-rule="evenodd" d="m88.796 186.155c2.133 16.923 15.704 12.049 13.71-2.797l-5.207-39.248-7.312-54.925c-1.551-11.688-8.614-17.782-15.732-18.447z" fill="#d9eeff" fill-rule="evenodd"/></g><g><path clip-rule="evenodd" d="m36.681 199.291c4.4 12.572 18.286 7.458 13.943-5.515l-12.028-35.916-7.715-23.059c-3.572-10.658-13.115-13.801-20.715-11.086z" fill="#d9eeff" fill-rule="evenodd"/></g><g><path clip-rule="evenodd" d="m384.823 391.313-7.7 28.529 17.615 4.764 1.939.526 7.727-28.529 88.741-155.08 8.143-14.264c5.816-10.165 2.853-18.862-3.074-23.183z" fill="#d9eeff" fill-rule="evenodd"/></g><g><path clip-rule="evenodd" d="m417.41 244.866c-7.057 15.515 2.4 21.516 11.458 7.886l19.172-28.859 26.344-66.604c5.029-12.772 1.229-21.887-5.4-25.516z" fill="#d9eeff" fill-rule="evenodd"/></g><g><path clip-rule="evenodd" d="m386.235 231.967 10.359-36.7 20.33-71.987c3.019-10.747-1.191-18.474-7.395-21.438l-33.07 113.589c-2.188 6.315-5.346 17.006 2.659 26.728 5.429 6.592 16.812 4.57 18.917-1.025-5.762 5.042-14.016-1.356-11.8-9.167z" fill="#d9eeff" fill-rule="evenodd"/></g><g><path clip-rule="evenodd" d="m317.99 226.095c-.222 16.425 23.376 22.38 29.774 3.878.083-.222.609-1.8.36-1.69-3.49 9.999-15.732 4.57-13.738-2.964l.36-2.327 4.958-32.102 9.611-62.403c2.631-16.951-3.905-25.537-11.633-27.172-.831-.165-18.086 116.582-19.692 124.78z" fill="#d9eeff" fill-rule="evenodd"/></g><g><path d="m369.477 349.383-63.37-35.73c-3.607-2.034-8.181-.759-10.215 2.849s-.759 8.181 2.849 10.215l63.37 35.73c1.164.656 2.428.968 3.676.968 2.619 0 5.161-1.374 6.539-3.817 2.034-3.608.759-8.181-2.849-10.215z"/><path d="m373.033 309.241-35.729-23.183c-3.473-2.254-8.118-1.266-10.372 2.209-2.253 3.474-1.264 8.118 2.21 10.372l35.729 23.183c1.261.818 2.675 1.209 4.074 1.209 2.455 0 4.861-1.205 6.298-3.418 2.253-3.474 1.264-8.118-2.21-10.372z"/><path d="m164.495 286.91-70.488 17.976c-4.013 1.024-6.436 5.107-5.413 9.119.865 3.391 3.914 5.647 7.26 5.647.614 0 1.237-.076 1.859-.234l70.488-17.976c4.013-1.024 6.436-5.107 5.413-9.119-1.024-4.014-5.108-6.433-9.119-5.413z"/><path d="m103.336 279.851c.763 0 1.539-.117 2.303-.364l40.548-13.073c3.942-1.271 6.106-5.497 4.835-9.438-1.271-3.942-5.499-6.108-9.438-4.836l-40.548 13.073c-3.942 1.271-6.106 5.496-4.835 9.438 1.024 3.178 3.967 5.2 7.135 5.2z"/><path d="m411.391 399.492 96.404-168.507c8.676-15.147 2.662-28.205-6.597-33.927-9.319-5.76-23.186-4.921-31.664 7.825l-25.726 38.722c-.304.458-1.009.089-.807-.422l31.667-80.12c7.174-18.188-.56-30.947-10.784-35.104-10.553-4.292-25.557.185-32.579 16.941l-37.112 88.795c-.264.629-.755.361-.619-.121l30.568-108.26c4.571-16.213-3.643-28.033-14.121-31.329-10.383-3.268-23.786 1.74-29.318 17.638l-36.991 106.507c-.125.361-.665.227-.607-.151l13.621-88.349c3.355-21.725-6.595-33.601-17.943-35.735-10.666-2.004-23.687 4.857-27.005 19.807l-31.542 141.881c-.002 0-.003 0-.005.001l-7.51-11.841v-.002c1.109-9.177-1.68-16.962-6.832-22.304-8.682-9.003-25.119-11.121-39.739 2.257l-9.504 8.708c-.827.758-2.157.136-2.106-.984l6.412-142.168c.703-15.302-10.072-25.323-20.897-26.17-11.518-.907-24.225 7.979-26.646 29.844l-9.73 87.472c-.06.535-.842.519-.88-.018l-7.86-111.106c-1.17-16.779-12.821-25.113-23.666-24.671-10.982.445-21.999 9.709-21.808 26.551l1.268 112.395c.006.506-.538.733-.628.066l-12.684-95.415c-2.39-18.001-15.7-26.241-27.006-24.85-10.96 1.346-21.757 11.646-19.564 31.082l9.626 85.225c.067.594-.777.781-.967.214l-14.622-43.738c-4.866-14.518-18.036-18.943-28.539-15.813-10.429 3.112-19.637 14.15-15.212 31.035l49.14 187.827v22.836c-9.6 3.736-16.424 13.072-16.424 23.977 0 14.184 11.539 25.724 25.723 25.724h50.381c4.142 0 7.499-3.357 7.499-7.499 0-4.141-3.357-7.499-7.499-7.499h-50.381c-5.914 0-10.726-4.812-10.726-10.727s4.812-10.727 10.726-10.727h132.946c5.915 0 10.727 4.812 10.727 10.727s-4.812 10.727-10.727 10.727h-48.248c-4.142 0-7.499 3.357-7.499 7.499 0 4.141 3.357 7.499 7.499 7.499h48.248c14.184 0 25.724-11.54 25.724-25.724 0-9.856-5.575-18.431-13.734-22.749 5.413-23.748 19.822-47.896 32.249-65.169h.005c9.457 21.56 20.348 54.796 19.474 83.484-3.231.448-6.382 1.516-9.302 3.194-5.972 3.43-10.241 8.962-12.024 15.581-3.681 13.705 4.458 27.852 18.137 31.537l43.872 11.855c3.994 1.08 8.115-1.284 9.195-5.283 1.081-3.998-1.285-8.115-5.283-9.195l-43.878-11.856c-5.705-1.537-9.096-7.443-7.56-13.162.738-2.741 2.517-5.039 5.011-6.471 2.241-1.287 4.798-1.717 7.296-1.25.281.062.573.111.851.187l38.871 10.486 89.825 24.251c5.489 1.698 8.715 7.464 7.215 13.048-.738 2.741-2.519 5.042-5.014 6.478-2.496 1.436-5.38 1.819-8.116 1.084l-53.261-14.375c-3.996-1.081-8.114 1.286-9.194 5.286-1.079 3.998 1.288 8.114 5.286 9.193l53.265 14.376c2.209.595 4.452.889 6.683.889 4.447 0 8.845-1.169 12.819-3.456 5.967-3.435 10.233-8.967 12.013-15.58 2.606-9.703-.733-19.638-7.777-25.921zm-221.589-39.221h-124.528v-22.055c0-.641-.082-1.278-.244-1.898l-49.385-188.764c-2.039-7.779 1.241-11.745 4.99-12.863 3.335-.997 7.964.034 10.03 6.201l18.694 55.916c5.308 15.923 14.599 15.205 17.318 14.603 5.887-1.299 11.594-7.839 9.959-22.303l-10.884-96.36c-1.054-9.346 2.5-14.024 6.489-14.514 4.271-.527 9.179 3.41 10.312 11.939l12.687 95.427c1.462 10.905 9.043 15.289 15.897 14.789 8.285-.6 14.698-7.838 14.6-16.478l-1.274-112.925c-.088-7.661 3.662-11.244 7.418-11.396 3.367-.143 7.53 2.59 8.098 10.737l8.531 120.596c.681 9.628 7.958 14.432 14.87 14.228 7.72-.245 13.842-6.144 14.14-13.521l10.795-97.049c1.317-11.898 6.235-16.892 10.57-16.547 3.656.286 7.382 4.074 7.085 10.537l-7.359 163.149c-.1 2.223.677 4.447 2.307 5.962 3.007 2.795 7.427 2.668 10.241.09l25.119-23.014c7.89-7.22 15.285-6.569 18.816-2.907 5.218 5.41 4.157 18.017-10.51 32.924-.454.461-43.791 46.436-54.782 95.496zm208.094 32.608c-.318.555-.563 1.148-.73 1.765l-5.763 21.276-73.376-19.794-46.834-12.646c-.001 0-.002-.001-.002-.003 1.775-40.381-17.207-84.318-24.106-98.842.001-.009.002-.015.003-.023 3.483-4.248 6.365-7.463 8.195-9.33 4.612-4.687 8.203-9.313 10.918-13.799h.011l11.073 17.459c1.627 2.564 4.639 3.893 7.626 3.37 2.99-.523 5.368-2.796 6.027-5.759l35.481-159.597c1.4-6.311 5.997-8.998 9.594-8.319 4.247.798 7.716 6.892 5.892 18.709l-14.88 96.514c-1.641 7.18 2.713 14.461 10.089 16.721 6.582 2.015 14.909-.712 18.094-9.838l39.661-114.194c2.688-7.723 7.421-9.276 10.651-8.257 3.584 1.128 6.268 5.57 4.188 12.951l-30.688 108.681c-2.352 8.304 1.95 16.955 9.792 19.696 6.287 2.198 14.984-.034 19.214-10.136l37.112-88.793c3.328-7.944 9.107-10.464 13.095-8.838 3.723 1.514 5.934 6.958 2.485 15.704l-35.648 90.188c-5.341 13.536-1.541 21.336 3.797 24.123 2.465 1.287 11.237 4.406 20.53-9.576l32.625-49.105c3.597-5.412 8.33-5.198 11.29-3.37 3.329 2.057 5.463 6.74 1.467 13.718z"/></g></g></svg>